<svg xmlns="http://www.w3.org/2000/svg">
  <defs>
    <symbol id="icon-antenna" viewBox="0 0 32 32">
      <path  d="m30.773 22.098-8.443-8.505.937-4.615c.242.094.499.144.758.146h.006a2.159 2.159 0 1 0-2.008-1.435l-4.96.605L8.972.161a.53.53 0 0 0-.377-.16.53.53 0 0 0-.373.155L6.709 1.66a.534.534 0 0 0 0 .754l.814.826a14.94 14.94 0 0 0 2.519 17.663.5.5 0 0 0 .146.098q-.05.271-.052.547v6.187h-6.4a2.67 2.67 0 0 0-2.667 2.667v1.067c0 .295.239.533.533.533h24.533a.533.533 0 0 0 .533-.533v-1.067a2.67 2.67 0 0 0-2.667-2.667h-6.4v-2.742a15 15 0 0 0 3.049.32 14.85 14.85 0 0 0 7.04-1.783l.818.823a.53.53 0 0 0 .377.16.53.53 0 0 0 .373-.155l1.513-1.504a.534.534 0 0 0 0-.754zM23.28 6.233a1.067 1.067 0 1 1 .753 1.822h-.003a1.067 1.067 0 0 1-.747-1.823h-.002zm-1.256 3.505-.598 2.946-1.175-1.182 1.774-1.763zm-.605-.902-1.92 1.909-1.485-1.493 3.405-.415zM24.004 28.8a1.6 1.6 0 0 1 1.6 1.6v.533H2.137V30.4a1.6 1.6 0 0 1 1.6-1.6zm-7.467-2.133v1.067h-5.333v-1.067zM11.204 25.6v-4.053c0-1.294 1.196-2.347 2.667-2.347s2.667 1.053 2.667 2.347V25.6zm6.4-1.696v-2.357c0-1.882-1.675-3.413-3.733-3.413a3.8 3.8 0 0 0-3.281 1.786A13.87 13.87 0 0 1 8.311 4.033l18.602 18.708a13.82 13.82 0 0 1-9.309 1.163m11.289-.684L7.836 2.039l.755-.752 7.935 7.98c.004 0 .006.007.01.01l13.115 13.191-.757.752z" style="fill:var(--color1, #2e2f42)"/>
      <path  d="M13.876 20.267h-.005a1.6 1.6 0 1 0-.004 3.2h.005a1.6 1.6 0 1 0 .004-3.2m.373 1.978a.534.534 0 0 1-.752-.756.53.53 0 0 1 .373-.155.534.534 0 0 1 .374.911z" style="fill:var(--color2, #4d5ae5)"/>
    </symbol>
    <symbol id="icon-astronaut" viewBox="0 0 32 32">
      <path  d="M31.974 4.524a.53.53 0 0 0-.43-.363l-1.91-.278-.855-1.731c-.179-.365-.777-.365-.956 0l-.855 1.731-1.91.278a.535.535 0 0 0-.296.91l1.383 1.348-.326 1.903c-.034.2.048.402.212.522a.53.53 0 0 0 .562.04l1.709-.899 1.709.899a.536.536 0 0 0 .775-.563l-.326-1.903 1.383-1.348a.54.54 0 0 0 .135-.547zm-2.463 1.327a.53.53 0 0 0-.153.472l.191 1.114-1-.526a.53.53 0 0 0-.498 0l-1.001.526.191-1.114a.53.53 0 0 0-.153-.472l-.81-.789 1.119-.163a.53.53 0 0 0 .402-.292l.5-1.013.5 1.013a.54.54 0 0 0 .402.292l1.119.163zM26.133 20.522h-1.067v1.067h1.067zM26.133 22.656h-1.067v1.067h1.067zM27.2 21.589h-1.067v1.067H27.2zM25.067 21.589H24v1.067h1.067zM22.4 26.389h-1.067v1.067H22.4zM22.4 28.522h-1.067v1.067H22.4zM23.467 27.456H22.4v1.067h1.067zM21.333 27.456h-1.067v1.067h1.067zM16 24.256h-1.067v1.067H16zM16 26.389h-1.067v1.067H16zM17.067 25.322H16v1.067h1.067zM14.933 25.322h-1.067v1.067h1.067zM5.867 6.122H4.8v1.067h1.067zM5.867 8.255H4.8v1.067h1.067z" style="fill:var(--color2, #4d5ae5)"/>
      <path  d="M6.933 7.189H5.866v1.067h1.067zM4.8 7.189H3.733v1.067H4.8z" style="fill:var(--color2, #4d5ae5)"/>
      <path  d="M24.715 14.159a1.78 1.78 0 0 0-1.188-.705 1.78 1.78 0 0 0-1.34.352l-1.252.96-1.898 1.417-1.358-.541c2.421-1.086 4.114-3.508 4.114-6.32 0-3.823-3.123-6.933-6.961-6.933s-6.961 3.11-6.961 6.933a6.86 6.86 0 0 0 1.12 3.758l-2.764-.024h-.005q-.012.002-.023.005a.5.5 0 0 0-.155.031l-.038.013q-.01.003-.019.006l-3.233 1.596-.001.001-1.893.911a.4.4 0 0 0-.063.035 1.78 1.78 0 0 0-.598 2.295c.22.429.595.745 1.056.889q.268.083.539.083c.29 0 .577-.071.839-.211l1.388-.738 2.264-1.169 1.357-.008L2.2 22.211l-.002.001-1.339 1.333c-.316.315-.49.732-.49 1.178s.174.863.49 1.179c.325.323.752.485 1.179.485s.854-.162 1.18-.485l1.314-1.309 1.741-1.3.901.897-1.762 1.754-.002.001-1.339 1.333c-.316.315-.49.732-.49 1.178s.174.863.49 1.179c.325.323.753.485 1.18.485s.855-.162 1.18-.485l3.482-3.467.001-.002 1.01-1-.004-.004q.01-.008.022-.015l5.166-5.658 3.471.494q.037.006.075.005a.5.5 0 0 0 .187-.038q.026-.01.05-.023c.019-.01.039-.015.058-.027l3.213-2.133c.012-.008.018-.021.029-.029.013-.01.029-.014.041-.026l1.271-1.191c.662-.62.753-1.635.212-2.362M2.13 17.77a.71.71 0 0 1-.558.052.717.717 0 0 1-.213-1.26l1.314-.632.449 1.313zm3.498-1.828-1.548.8-.439-1.283 2.027-1.001zm15.099-6.62a5.8 5.8 0 0 1-.599 2.559l-4.181-1.899a1.86 1.86 0 0 0-.788-1.388l1.464-4.86c2.378.756 4.105 2.974 4.105 5.588zm-11.789 0c0-3.235 2.644-5.867 5.894-5.867.253 0 .5.021.745.052l-1.432 4.754c-.019-.001-.037-.006-.057-.006-1.033 0-1.873.837-1.873 1.867s.84 1.867 1.873 1.867c.694 0 1.294-.383 1.618-.945l3.862 1.755a5.9 5.9 0 0 1-4.737 2.39c-3.25 0-5.894-2.632-5.894-5.867zm5.956.8c0 .441-.362.8-.806.8s-.806-.359-.806-.8.362-.8.806-.8.806.359.806.8M2.465 25.146a.61.61 0 0 1-.854.001.59.59 0 0 1 0-.844l.962-.958.851.848-.959.955zm3.214 3.734a.61.61 0 0 1-.855.001.59.59 0 0 1 0-.844l.963-.959.852.848-.96.955zm3.481-3.469-.002.001-1.765 1.76-.852-.848 1.763-1.755.002-.001c.04-.04.065-.088.09-.135.007-.014.02-.026.026-.04.017-.041.019-.085.026-.129.003-.025.014-.047.014-.073 0-.036-.013-.07-.02-.106-.006-.032-.006-.065-.019-.095a.6.6 0 0 0-.091-.138c-.01-.012-.014-.027-.025-.038h-.001l-.001-.002-1.607-1.6c-.017-.017-.039-.024-.058-.038a.5.5 0 0 0-.087-.058.5.5 0 0 0-.093-.033.5.5 0 0 0-.103-.02.5.5 0 0 0-.095.005.5.5 0 0 0-.104.02.5.5 0 0 0-.094.045c-.02.011-.042.015-.061.029L4.23 23.486l-.901-.897 2.399-2.386 4.361 4.289zm6.819-7.017c-.015-.002-.03.004-.045.003a.56.56 0 0 0-.3.075.5.5 0 0 0-.083.061c-.013.011-.028.017-.04.029l-4.698 5.146-4.328-4.257 2.833-2.818a.534.534 0 0 0-.379-.911v-.001l-2.219.013.028-1.607 3.104.027a6.95 6.95 0 0 0 4.981 2.101c.437 0 .864-.045 1.279-.123.04.032.079.065.13.085l2.41.96.152.758.178.885zm4.041.178-.313-1.558 1.446-1.08.947 1.257zm3.754-2.831-.838.785-.931-1.236.831-.637a.74.74 0 0 1 .543-.143.72.72 0 0 1 .48.284.713.713 0 0 1-.085.947" style="fill:var(--color1, #2e2f42)"/>
      <path  d="m13.602 18.544-2.143-2.133a.534.534 0 0 0-.753 0l-2.142 2.133a.537.537 0 0 0 0 .756l2.142 2.133a.536.536 0 0 0 .753 0l2.143-2.133a.535.535 0 0 0 0-.756m-2.519 1.759-1.387-1.381 1.387-1.381 1.387 1.381zM17.164 5.071l-.258 1.036c.071.018 1.738.452 1.738 2.149h1.067c0-2.017-1.666-2.965-2.547-3.185M19.711 9.322h-1.067v1.067h1.067z" style="fill:var(--color1, #2e2f42)"/>
    </symbol>
    <symbol id="icon-clock" viewBox="0 0 32 32">
      <path  d="M31.297 15.301C31.295 6.849 24.442-.002 15.989 0S.686 6.855.688 15.308a15.3 15.3 0 0 0 10.649 14.576.662.662 0 0 0 .529-.065.64.64 0 0 0 .283-.356l3.865-12.25a1.912 1.912 0 1 0-.84-3.635l-5.106-5.107a.637.637 0 0 0-.902.902l5.103 5.109a1.876 1.876 0 0 0 .536 2.309l-3.683 11.673C3.844 25.783.118 17.71 2.799 10.432S13.553-.572 20.831 2.109s11.004 10.754 8.323 18.032a14.04 14.04 0 0 1-7.462 7.973l-.398-1.874a.637.637 0 0 0-1.049-.344l-3.837 3.426a.637.637 0 0 0 .231 1.084l4.899 1.564a.638.638 0 0 0 .819-.74l-.391-1.839a15.255 15.255 0 0 0 9.329-14.089zm-15.305-.637a.638.638 0 1 1 0 1.277.638.638 0 0 1 0-1.277m2.101 14.864 2.184-1.948.603 2.84z" style="fill:var(--color1, #2e2f42)"/>
      <path  d="M15.354 3.185V4.46a.638.638 0 1 0 1.276 0V3.185a.638.638 0 0 0-1.276 0M3.876 14.664a.638.638 0 0 0 0 1.276h1.275a.638.638 0 1 0 0-1.276zM28.108 15.939a.638.638 0 1 0 0-1.276h-1.275a.638.638 0 0 0 0 1.276z" style="fill:var(--color2, #4d5ae5)"/>
    </symbol>
    <symbol id="icon-diagram" viewBox="0 0 32 32">
      <path  d="M14.925 14.965h1.066v4.798h-1.066zM19.19 17.097h1.066v2.665H19.19zM10.661 18.696h1.066v1.066h-1.066zM7.463 18.163h1.066v1.599H7.463z" style="fill:var(--color2, #4d5ae5)"/>
      <path  d="M1.599 28.291h25.587a1.6 1.6 0 0 0 1.599-1.599V24.56a1.6 1.6 0 0 0-1.599-1.599h-.533V9.668L29.681 6.8a1.608 1.608 0 1 0-.746-.763L26.654 8.2V6.97a1.6 1.6 0 0 0-1.599-1.599H3.733A1.6 1.6 0 0 0 2.134 6.97v15.992h-.533a1.6 1.6 0 0 0-1.599 1.599v2.132a1.6 1.6 0 0 0 1.599 1.599zM30.384 4.837a.533.533 0 1 1 0 1.067.533.533 0 0 1 0-1.067M3.198 6.969c0-.294.239-.533.533-.533h21.322c.294 0 .533.239.533.533v2.239l-1.066 1.013V8.035a.533.533 0 0 0-.533-.533H4.797a.533.533 0 0 0-.533.533v13.326c0 .294.239.533.533.533h19.19a.533.533 0 0 0 .533-.533v-9.674l1.066-1.01v12.284H3.198zm4.798 6.93a1.598 1.598 0 1 0 1.107 2.749l1.853.93a.53.53 0 0 0 .636-.123l3.939-4.431 3.872 2.901a.53.53 0 0 0 .686-.039l3.365-3.188v8.131H5.33V8.569h18.124v2.66l-3.771 3.572-3.904-2.927a.533.533 0 0 0-.718.072l-3.993 4.493-1.493-.746q.017-.096.02-.193a1.6 1.6 0 0 0-1.599-1.599zm.533 1.599a.533.533 0 1 1-1.067 0 .533.533 0 0 1 1.067 0m3.198 8.529h5.331v.533a.533.533 0 0 1-.533.533h-4.264a.533.533 0 0 1-.533-.533zm-10.661.533c0-.294.239-.533.533-.533h9.062v.533a1.6 1.6 0 0 0 1.599 1.599h4.264a1.6 1.6 0 0 0 1.599-1.599v-.533h9.062c.294 0 .533.239.533.533v2.132a.533.533 0 0 1-.533.533H1.598a.533.533 0 0 1-.533-.533z" style="fill:var(--color1, #2e2f42)"/>
    </symbol>
    <symbol id="icon-linkedin" viewBox="0 0 32 32">
      <title>linkedin</title>
      <path fill="#f4f4fd" d="M31.992 32v-.001H32V20.263c0-5.741-1.236-10.164-7.948-10.164-3.227 0-5.392 1.771-6.276 3.449h-.093v-2.913h-6.364v21.364h6.627V21.42c0-2.785.528-5.479 3.977-5.479 3.399 0 3.449 3.179 3.449 5.657v10.401h6.62zM.528 10.636h6.635V32H.528zM3.843 0C1.722 0 0 1.721 0 3.843s1.721 3.879 3.843 3.879 3.843-1.757 3.843-3.879A3.846 3.846 0 0 0 3.843 0" style="fill:var(--color1, #f4f4fd)"/>
    </symbol>
    <symbol id="icon-facebook" viewBox="0 0 32 32">
      <title>facebook</title>
      <path fill="#f4f4fd" d="M21.329 5.313h2.921V.225C23.746.156 22.013 0 19.994 0c-4.212 0-7.097 2.649-7.097 7.519V12H8.249v5.688h4.648V32h5.699V17.689h4.46l.708-5.688h-5.169V8.082c.001-1.644.444-2.769 2.735-2.769z" style="fill:var(--color1, #f4f4fd)"/>
    </symbol>
    <symbol id="icon-instagram" viewBox="0 0 32 32">
      <title>instagram</title>
      <path fill="#f4f4fd" d="M31.969 9.408c-.075-1.7-.35-2.869-.744-3.882a7.8 7.8 0 0 0-1.85-2.838A7.9 7.9 0 0 0 26.543.844C25.524.45 24.361.175 22.661.1 20.948.019 20.404 0 16.06 0s-4.888.019-6.595.094c-1.7.075-2.869.35-3.882.744a7.8 7.8 0 0 0-2.838 1.85A7.9 7.9 0 0 0 .901 5.52C.507 6.539.232 7.702.157 9.402c-.081 1.713-.1 2.257-.1 6.601s.019 4.888.094 6.595c.075 1.7.35 2.869.744 3.882a7.9 7.9 0 0 0 1.85 2.838 7.9 7.9 0 0 0 2.832 1.844c1.019.394 2.182.669 3.882.744 1.706.075 2.25.094 6.595.094s4.888-.019 6.595-.094c1.7-.075 2.869-.35 3.882-.744a8.18 8.18 0 0 0 4.682-4.682c.394-1.019.669-2.182.744-3.882.075-1.707.094-2.25.094-6.595s-.006-4.888-.081-6.595zm-2.882 13.065c-.069 1.563-.331 2.407-.55 2.969a5.3 5.3 0 0 1-3.038 3.038c-.563.219-1.413.481-2.969.55-1.688.075-2.194.094-6.464.094s-4.782-.019-6.464-.094c-1.563-.069-2.407-.331-2.969-.55a4.9 4.9 0 0 1-1.838-1.194 5 5 0 0 1-1.194-1.838c-.219-.563-.481-1.413-.55-2.969-.075-1.688-.094-2.194-.094-6.464s.019-4.782.094-6.464c.069-1.563.331-2.407.55-2.969a4.9 4.9 0 0 1 1.2-1.838A5 5 0 0 1 6.639 3.55c.563-.219 1.413-.481 2.969-.55 1.688-.075 2.194-.094 6.464-.094 4.276 0 4.782.019 6.464.094 1.563.069 2.407.331 2.969.55a4.9 4.9 0 0 1 1.838 1.194 5 5 0 0 1 1.194 1.838c.219.563.481 1.413.55 2.969.075 1.688.094 2.194.094 6.464s-.019 4.77-.094 6.458" style="fill:var(--color1, #f4f4fd)"/>
      <path fill="#f4f4fd" d="M16.059 7.783c-4.538 0-8.22 3.682-8.22 8.22s3.682 8.22 8.22 8.22 8.22-3.682 8.22-8.22-3.682-8.22-8.22-8.22m0 13.552a5.333 5.333 0 0 1 0-10.664 5.333 5.333 0 0 1 0 10.664M26.524 7.458a1.919 1.919 0 1 1-3.838 0 1.919 1.919 0 0 1 3.838 0" style="fill:var(--color1, #f4f4fd)"/>
    </symbol>
    <symbol id="icon-twitter" viewBox="0 0 32 32">
      <title>twitter</title>
      <path fill="#f4f4fd" d="M32 6.078c-1.19.522-2.458.868-3.78 1.036a6.52 6.52 0 0 0 2.886-3.626 13.1 13.1 0 0 1-4.16 1.588A6.57 6.57 0 0 0 22.154 3c-3.632 0-6.556 2.948-6.556 6.562 0 .52.044 1.02.152 1.496-5.454-.266-10.28-2.88-13.522-6.862a6.6 6.6 0 0 0-.898 3.316 6.57 6.57 0 0 0 2.914 5.452 6.5 6.5 0 0 1-2.964-.808v.072c0 3.188 2.274 5.836 5.256 6.446a6.6 6.6 0 0 1-1.72.216 5.8 5.8 0 0 1-1.242-.112c.85 2.598 3.262 4.508 6.13 4.57a13.18 13.18 0 0 1-8.134 2.798c-.538 0-1.054-.024-1.57-.09A18.47 18.47 0 0 0 10.064 29c12.072 0 18.672-10 18.672-18.668q-.002-.433-.024-.848A13.1 13.1 0 0 0 32 6.078" style="fill:var(--color1, #f4f4fd)"/>
    </symbol>
    <symbol id="icon-close" viewBox="0 0 32 32">
      <title>close-black</title>
      <path d="M32 3.223 28.777 0 16 12.777 3.223 0 0 3.223 12.777 16 0 28.777 3.223 32 16 19.223 28.777 32 32 28.777 19.223 16z"/>
    </symbol>
    <symbol id="icon-email" viewBox="0 0 24 32">
      <title>email</title>
      <path d="M20 8H4c-1.1 0-1.99.9-1.99 2L2 22c0 1.1.9 2 2 2h16c1.1 0 2-.9 2-2V10c0-1.1-.9-2-2-2m-.4 4.25-7.07 4.42c-.32.2-.74.2-1.06 0L4.4 12.25a.85.85 0 1 1 .9-1.44L12 15l6.7-4.19a.85.85 0 1 1 .9 1.44"/>
    </symbol>
    <symbol id="icon-person" viewBox="0 0 32 32">
      <title>person</title>
      <path d="M16 16c2.947 0 5.333-2.387 5.333-5.333S18.946 5.334 16 5.334s-5.333 2.387-5.333 5.333S13.054 16 16 16m0 2.667c-3.56 0-10.667 1.787-10.667 5.333v1.333c0 .733.6 1.333 1.333 1.333h18.667c.733 0 1.333-.6 1.333-1.333V24c0-3.547-7.107-5.333-10.667-5.333z" style="fill:var(--color1, #4d5ae5)"/>
    </symbol>
    <symbol id="icon-phone" viewBox="0 0 24 32">
      <title>phone</title>
      <path d="m19.635 18.487-2.451-.28a1.92 1.92 0 0 0-1.582.55l-1.775 1.775a14.5 14.5 0 0 1-6.359-6.359l1.785-1.785c.415-.415.618-.994.55-1.582l-.28-2.432a1.93 1.93 0 0 0-1.92-1.708H5.934c-1.09 0-1.997.907-1.93 1.997.511 8.24 7.102 14.821 15.332 15.332 1.09.068 1.997-.839 1.997-1.93v-1.669a1.913 1.913 0 0 0-1.698-1.911z"/>
    </symbol>
    <symbol id="icon-Footer-telegram" viewBox="0 0 32 32">
      <title>Footer-telegram</title>
      <path d="m32 2.667-32 15 10.227 3.156L26 8.5 14.002 21.988l.01.003-.012-.003v7.345l5.735-5.576L27 25.999z" style="fill:var(--color1, #fff)"/>
    </symbol>
    </defs>
</svg>