<svg width="64" height="50" viewBox="0 0 64 50" fill="none" xmlns="http://www.w3.org/2000/svg">
<path d="M3.19833 49.0856H54.3715C56.1378 49.0856 57.5699 47.6535 57.5699 45.8873V41.6228C57.5699 39.8566 56.1378 38.4245 54.3715 38.4245H53.3054V11.8379L59.3611 6.10131C60.7666 6.79418 62.4678 6.37356 63.3876 5.10392C64.308 3.83479 64.1789 2.08727 63.0826 0.96702C61.9863 -0.153227 60.2424 -0.320327 58.953 0.571394C57.6641 1.46364 57.206 3.15494 57.8681 4.57555L53.3054 8.90089V6.44124C53.3054 4.67497 51.8734 3.24291 50.1071 3.24291H7.46276C5.6965 3.24291 4.26443 4.67497 4.26443 6.44124V38.4245H3.19833C1.43206 38.4245 0 39.8566 0 41.6228V45.8873C0 47.6535 1.43206 49.0856 3.19833 49.0856ZM60.7682 2.1768C61.3569 2.1768 61.8343 2.65416 61.8343 3.24291C61.8343 3.83167 61.3569 4.30902 60.7682 4.30902C60.1794 4.30902 59.7021 3.83167 59.7021 3.24291C59.7021 2.65416 60.1794 2.1768 60.7682 2.1768ZM6.39665 6.44124C6.39665 5.85248 6.874 5.37513 7.46276 5.37513H50.1071C50.6958 5.37513 51.1732 5.85248 51.1732 6.44124V10.9186L49.041 12.9446V8.57345C49.041 7.9847 48.5636 7.50735 47.9749 7.50735H9.59498C9.00622 7.50735 8.52887 7.9847 8.52887 8.57345V35.2262C8.52887 35.8149 9.00622 36.2923 9.59498 36.2923H47.9749C48.5636 36.2923 49.041 35.8149 49.041 35.2262V15.8774L51.1732 13.8571V38.4245H6.39665V6.44124ZM15.9916 20.3006C14.5492 20.2965 13.2826 21.2574 12.899 22.6479C12.5153 24.0383 13.1093 25.513 14.3498 26.2491C15.5898 26.9852 17.1697 26.8004 18.2061 25.7973L21.912 27.6567C22.3425 27.8722 22.8646 27.7712 23.1847 27.4115L31.0624 18.549L38.8062 24.3517C39.2216 24.663 39.8016 24.6296 40.1784 24.2731L46.9088 17.8977V34.1601H10.6611V9.63956H46.9088V14.9602L39.3658 22.1034L31.5569 16.2491C31.1134 15.917 30.4892 15.9795 30.1207 16.3933L22.1348 25.3787L19.1493 23.8858C19.1712 23.7577 19.1847 23.6286 19.19 23.499C19.19 21.7327 17.7579 20.3006 15.9916 20.3006ZM17.0577 23.499C17.0577 24.0877 16.5804 24.5651 15.9916 24.5651C15.4029 24.5651 14.9255 24.0877 14.9255 23.499C14.9255 22.9102 15.4029 22.4329 15.9916 22.4329C16.5804 22.4329 17.0577 22.9102 17.0577 23.499ZM23.4544 40.5567H34.1155V41.6228C34.1155 42.2116 33.6381 42.6889 33.0494 42.6889H24.5205C23.9317 42.6889 23.4544 42.2116 23.4544 41.6228V40.5567ZM2.13222 41.6228C2.13222 41.0341 2.60957 40.5567 3.19833 40.5567H21.3222V41.6228C21.3222 43.3891 22.7542 44.8211 24.5205 44.8211H33.0494C34.8156 44.8211 36.2477 43.3891 36.2477 41.6228V40.5567H54.3715C54.9603 40.5567 55.4376 41.0341 55.4376 41.6228V45.8873C55.4376 46.476 54.9603 46.9534 54.3715 46.9534H3.19833C2.60957 46.9534 2.13222 46.476 2.13222 45.8873V41.6228Z" fill="#2E2F42"/>
</svg>
