<svg width="62" height="64" viewBox="0 0 62 64" fill="none" xmlns="http://www.w3.org/2000/svg">
<path d="M61.2183 30.6025C61.2149 13.6978 47.5078 -0.00341734 30.6025 6.39362e-07C13.6978 0.00341861 -0.00341734 13.7109 6.39362e-07 30.6157C0.00293033 43.9316 8.61377 55.7178 21.2988 59.7681C21.4199 59.8062 21.5459 59.8257 21.6724 59.8252C21.9136 59.8247 22.1499 59.7603 22.3574 59.6377C22.6274 59.478 22.8291 59.2241 22.9238 58.9248L30.6538 34.4248C32.7671 34.4141 34.4712 32.6919 34.46 30.5791C34.4492 28.4658 32.7275 26.7617 30.6143 26.7725C30.0459 26.7749 29.4849 26.9058 28.9741 27.1553L18.7622 16.9419C18.2554 16.4526 17.4482 16.4668 16.959 16.9731C16.4814 17.4678 16.4814 18.251 16.959 18.7456L27.1655 28.9639C26.3823 30.5625 26.8301 32.4922 28.2383 33.582L20.873 56.9277C6.31738 51.5659 -1.13574 35.4199 4.22608 20.8643C9.58789 6.30859 25.7339 -1.14453 40.2896 4.21729C54.8452 9.5791 62.2983 25.7256 56.9365 40.2808C54.3169 47.3921 48.9346 53.1431 42.0122 56.2275L41.2163 52.479C41.0708 51.79 40.3936 51.3496 39.7046 51.4956C39.4873 51.542 39.2856 51.6441 39.1196 51.792L31.4458 58.6431C30.9194 59.1113 30.8726 59.9175 31.3413 60.4439C31.4937 60.6148 31.689 60.7417 31.9077 60.8115L41.7051 63.9385C42.3755 64.1538 43.0938 63.7852 43.3091 63.1143C43.3774 62.9024 43.3887 62.6768 43.3428 62.459L42.5606 58.7808C53.8892 54.0049 61.2446 42.8965 61.2183 30.6025ZM30.6094 29.3272C31.3135 29.3272 31.8848 29.8984 31.8848 30.6025C31.8848 31.3071 31.3135 31.8779 30.6094 31.8779C29.9048 31.8779 29.334 31.3071 29.334 30.6025C29.334 29.8984 29.9048 29.3272 30.6094 29.3272ZM34.8101 59.0552L39.1782 55.1587L40.3838 60.8394L34.8101 59.0552Z" fill="#2E2F42"/>
</svg>
