<svg width="60" height="64" viewBox="0 0 60 64" fill="none" xmlns="http://www.w3.org/2000/svg">
<path d="M59.4048 44.1952L42.5184 27.1851L44.3925 17.9541C44.8761 18.1429 45.3903 18.2416 45.9093 18.2453H45.9221C48.3067 18.2735 50.2625 16.3633 50.2908 13.9788C50.3191 11.5943 48.4088 9.6384 46.0243 9.61013C43.6397 9.582 41.6839 11.4921 41.6556 13.8767C41.6496 14.3869 41.734 14.8941 41.9051 15.3749L31.9851 16.5856L15.8037 0.32C15.6052 0.117467 15.3343 0.00226667 15.0507 0C14.7707 0.00146667 14.5025 0.112933 14.304 0.3104L11.2789 3.3184C10.8625 3.73493 10.8625 4.41013 11.2789 4.82667L12.9067 6.47787C6.60053 18.0737 8.6488 32.4335 17.9456 41.8037C18.0309 41.8853 18.1299 41.9513 18.2379 41.9989C18.1707 42.3599 18.1356 42.7261 18.1333 43.0933V55.4667H5.33333C2.38933 55.4701 0.00346667 57.856 0 60.8V62.9333C0 63.5224 0.4776 64 1.06667 64H50.1333C50.7224 64 51.2 63.5224 51.2 62.9333V60.8C51.1965 57.856 48.8107 55.4701 45.8667 55.4667H33.0667V49.9829C35.0719 50.4035 37.1149 50.6179 39.1637 50.6229C44.08 50.6176 48.918 49.392 53.2437 47.056L54.88 48.7019C55.0785 48.9044 55.3495 49.0196 55.6331 49.0219C55.9131 49.0204 56.1812 48.9089 56.3797 48.7115L59.4048 45.7035C59.8212 45.2869 59.8212 44.6117 59.4048 44.1952ZM44.4181 12.4661C45.2535 11.6352 46.6043 11.6389 47.4351 12.4743C48.266 13.3096 48.2623 14.6604 47.4269 15.4912C47.0271 15.8889 46.486 16.1121 45.922 16.112H45.9156C44.7375 16.1059 43.7872 15.1459 43.7933 13.9676C43.7963 13.4036 44.0224 12.8639 44.4223 12.4661H44.4181ZM41.9072 19.4752L40.7104 25.3664L38.3595 23.0016L41.9072 19.4752ZM40.6955 17.6715L36.8555 21.4891L33.8848 18.5024L40.6955 17.6715ZM45.8667 57.6C47.634 57.6 49.0667 59.0327 49.0667 60.8V61.8667H2.13333V60.8C2.13333 59.0327 3.566 57.6 5.33333 57.6H45.8667ZM30.9333 53.3333V55.4667H20.2667V53.3333H30.9333ZM20.2667 51.2V43.0933C20.2667 40.5056 22.6592 38.4 25.6 38.4C28.5408 38.4 30.9333 40.5056 30.9333 43.0933V51.2H20.2667ZM33.0667 47.808V43.0933C33.0667 39.3291 29.7173 36.2667 25.6 36.2667C22.9379 36.2259 20.4485 37.5809 19.0379 39.8389C10.9224 31.2913 9.09493 18.5485 14.4807 8.06467L51.6843 45.4816C45.9395 48.404 39.354 49.2268 33.0667 47.808ZM55.6448 46.4405L54.1419 44.9291L15.04 5.59147L13.5307 4.07893L15.04 2.57493L30.9099 18.5344C30.9173 18.5344 30.9216 18.5483 30.9291 18.5536L57.1584 44.9365L55.6448 46.4405Z" fill="#2E2F42"/>
</svg>
