<!-- Generated by IcoMoon.io -->
<svg version="1.1" xmlns="http://www.w3.org/2000/svg" width="46" height="32" viewBox="0 0 46 32">
<path fill="#f4f4fd" d="M36.718 1.018c0.751-0.66 1.751-1.025 2.788-1.018s2.031 0.386 2.771 1.057 1.17 1.581 1.197 2.538c0.027 0.957-0.349 1.887-1.050 2.593l-21.28 24.566c-0.366 0.364-0.808 0.656-1.298 0.858s-1.021 0.312-1.559 0.321c-0.538 0.009-1.072-0.082-1.571-0.268s-0.952-0.462-1.332-0.814l-14.112-13.026c-0.393-0.338-0.708-0.746-0.927-1.199s-0.336-0.942-0.346-1.438 0.089-0.988 0.29-1.448c0.201-0.46 0.501-0.877 0.88-1.228s0.832-0.627 1.33-0.813 1.032-0.277 1.569-0.268c0.537 0.009 1.067 0.117 1.557 0.319s0.932 0.493 1.298 0.856l11.168 10.304 18.523-21.785c0.033-0.038 0.069-0.074 0.107-0.108h-0.005z"></path>
</svg>
